<svg width="60" height="61" viewBox="0 0 60 61" fill="none" xmlns="http://www.w3.org/2000/svg">
<circle cx="30" cy="30.8691" r="30" fill="#5A5ADC"/>
<path d="M31.2349 23.3662C31.2349 18.4459 27.0065 14.5149 22.0031 15.0581C18.2185 15.4721 15.1501 18.5104 14.685 22.3122C14.4124 24.5116 15.0058 26.5658 16.1497 28.1898L21.7465 36.9872C22.3238 37.7992 23.5266 37.7992 24.1039 36.9872L29.7061 28.1898C30.6683 26.8239 31.2349 25.1676 31.2349 23.3662Z" stroke="white" stroke-width="1.5" stroke-miterlimit="10" stroke-linecap="round" stroke-linejoin="round"/>
<path d="M26.6536 23.0005C26.6536 25.0708 24.9858 26.7486 22.9278 26.7486C20.8697 26.7486 19.2019 25.0708 19.2019 23.0005C19.2019 20.9302 20.8697 19.2524 22.9278 19.2524C24.9858 19.2524 26.6536 20.9302 26.6536 23.0005Z" stroke="white" stroke-width="1.5" stroke-miterlimit="10" stroke-linecap="round" stroke-linejoin="round"/>
<path d="M26.3009 33.5566H42.4284L46.7049 46.7313H13.2952L17.5716 33.5566H19.4426" stroke="white" stroke-width="1.5" stroke-miterlimit="10" stroke-linecap="round" stroke-linejoin="round"/>
<path d="M22.6499 38.2401C22.6499 38.2401 23.2112 41.6118 27.4395 41.6118C31.2723 41.6118 32.3093 37.9175 35.661 37.9175C39.6595 37.9175 40.6912 42.0957 40.6912 42.0957" stroke="white" stroke-width="1.5" stroke-miterlimit="10" stroke-linecap="round" stroke-linejoin="round"/>
</svg>
