<svg width="277" height="280" viewBox="0 0 277 280" fill="none" xmlns="http://www.w3.org/2000/svg">
<g clip-path="url(#clip0)">
<path d="M111.133 42.9026L78.5781 58.6797L94.2783 91.0758L126.833 75.2987L111.133 42.9026Z" fill="#AFDAE9" stroke="#2F3B84" stroke-width="2" stroke-miterlimit="10" stroke-linejoin="round"/>
<path d="M113.557 61.7305L156.964 40.6943" stroke="#2F3B84" stroke-width="2" stroke-miterlimit="10" stroke-linejoin="round"/>
<path d="M156.964 40.6941C161.307 49.657 172.084 53.3686 181.091 49.0036C190.098 44.6386 193.862 33.8799 189.518 24.917C185.175 15.9541 174.398 12.2425 165.391 16.6075C156.384 20.9725 152.62 31.7312 156.964 40.6941Z" fill="#FFF100" stroke="#2F3B84" stroke-width="2" stroke-miterlimit="10" stroke-linejoin="round"/>
<path d="M86.4282 74.8779L43.0217 95.9141" stroke="#2F3B84" stroke-width="2" stroke-miterlimit="10" stroke-linejoin="round"/>
<path d="M82.4645 163.476L49.9097 179.253L65.6098 211.65L98.1647 195.872L82.4645 163.476Z" fill="#AFDAE9" stroke="#2F3B84" stroke-width="2" stroke-miterlimit="10" stroke-linejoin="round"/>
<path d="M223.536 95.1086L190.981 110.886L206.681 143.282L239.236 127.505L223.536 95.1086Z" fill="#AFDAE9" stroke="#2F3B84" stroke-width="2" stroke-miterlimit="10" stroke-linejoin="round"/>
<path d="M48.4474 93.2847C52.7911 102.248 49.0269 113.006 40.0201 117.371C31.0132 121.736 20.2363 118.025 15.8926 109.062C11.5488 100.099 15.3131 89.3402 24.3199 84.9752C33.3268 80.6102 44.1037 84.3218 48.4474 93.2847Z" fill="#FFF100" stroke="#2F3B84" stroke-width="2" stroke-miterlimit="10" stroke-linejoin="round"/>
<path d="M117.16 62.251C152.804 52.7108 190.833 68.5517 206.978 101.866" stroke="#2F3B84" stroke-width="2" stroke-miterlimit="10" stroke-linejoin="round"/>
<path d="M67.1003 169.655C50.9554 136.341 61.3791 97.0181 90.0305 75.3985" stroke="#2F3B84" stroke-width="2" stroke-miterlimit="10" stroke-linejoin="round"/>
</g>
<defs>
<clipPath id="clip0">
<rect width="205" height="210" fill="white" transform="translate(0 90.0938) rotate(-25.8563)"/>
</clipPath>
</defs>
</svg>
