<svg width="124" height="121" viewBox="0 0 124 121" fill="none" xmlns="http://www.w3.org/2000/svg">
<path d="M24.7371 73.4811C17.433 73.4811 11.5088 67.5568 11.5088 60.2528C11.5088 52.9487 17.433 47.0244 24.7371 47.0244C32.0412 47.0244 37.9655 52.9487 37.9655 60.2528C37.9655 67.5568 32.0412 73.4811 24.7371 73.4811Z" stroke="#2D5FC3" stroke-width="2.5" stroke-miterlimit="10" stroke-linecap="round" stroke-linejoin="round"/>
<path d="M30.1364 90.7291C28.1716 90.7291 26.4618 92.034 25.9219 93.9087L22.7273 105.352L20.5826 112.896L19.7727 115.746C19.2177 117.711 20.6875 119.661 22.7273 119.661H55.2432C57.208 119.661 58.9178 118.356 59.4577 116.481L60.7325 111.996L62.7123 105.037L65.6069 94.6436C66.1619 92.6789 64.692 90.7291 62.6523 90.7291H30.1364Z" stroke="#2D5FC3" stroke-width="2.5" stroke-miterlimit="10" stroke-linecap="round" stroke-linejoin="round"/>
<path d="M24.0323 100.808H14.5685C13.7736 100.808 13.1287 100.163 13.1287 99.3681V94.1038" stroke="#2D5FC3" stroke-width="2.5" stroke-miterlimit="10" stroke-linecap="round" stroke-linejoin="round"/>
<path d="M43.1848 83.6051C40.7702 81.3554 37.5306 79.9756 33.976 79.9756H15.4833C8.04424 79.9756 2 86.0048 2 93.4589V102.023C2 107.467 6.40945 111.877 11.8538 111.877H20.8826" stroke="#2D5FC3" stroke-width="2.5" stroke-miterlimit="10" stroke-linecap="round" stroke-linejoin="round"/>
<path d="M24.2871 119.661H3.70972" stroke="#2D5FC3" stroke-width="2.5" stroke-miterlimit="10" stroke-linecap="round" stroke-linejoin="round"/>
<path d="M46.6495 105.682C46.6495 107.677 45.0297 109.297 43.035 109.297C41.0402 109.297 39.4204 107.677 39.4204 105.682C39.4204 103.688 41.0402 102.068 43.035 102.068C45.0297 102.068 46.6495 103.688 46.6495 105.682Z" stroke="#2D5FC3" stroke-width="2.5" stroke-miterlimit="10" stroke-linecap="round" stroke-linejoin="round"/>
<path d="M121.985 34.4409V16.7132C121.985 8.58418 115.401 2 107.272 2H61.3477C53.2187 2 46.6345 8.58418 46.6345 16.7132V54.4034C46.6345 62.5324 53.2187 69.1166 61.3477 69.1166H61.3627C61.9626 69.1166 62.4575 69.6115 62.4575 70.2115V78.9254C62.4575 81.0251 64.9922 82.075 66.477 80.5902L77.6206 69.4466C77.8306 69.2366 78.1006 69.1316 78.4005 69.1316H107.287C115.416 69.1316 122 62.5474 122 54.4184V34.4409H121.985Z" stroke="#2D5FC3" stroke-width="2.5" stroke-miterlimit="10" stroke-linecap="round" stroke-linejoin="round"/>
<path d="M61.9614 34.592V36.2L71.6334 42.728V40.52L63.8574 35.432L71.6334 30.032V27.848L61.9614 34.592ZM81.0549 30.968H79.2549V49.496H81.4389V45.08L81.3909 42.8C81.9829 43.28 82.5829 43.656 83.1909 43.928C83.7989 44.184 84.3989 44.312 84.9909 44.312C85.7429 44.312 86.4549 44.16 87.1269 43.856C87.8149 43.536 88.4149 43.08 88.9269 42.488C89.4549 41.88 89.8709 41.144 90.1749 40.28C90.4949 39.4 90.6549 38.4 90.6549 37.28C90.6549 36.272 90.5429 35.36 90.3189 34.544C90.0949 33.728 89.7589 33.032 89.3109 32.456C88.8789 31.88 88.3429 31.432 87.7029 31.112C87.0629 30.792 86.3189 30.632 85.4709 30.632C84.7029 30.632 83.9669 30.816 83.2629 31.184C82.5589 31.552 81.9109 31.976 81.3189 32.456H81.2469L81.0549 30.968ZM84.6309 42.488C84.1989 42.488 83.7029 42.392 83.1429 42.2C82.5989 41.992 82.0309 41.632 81.4389 41.12V34.28C82.0789 33.688 82.6789 33.24 83.2389 32.936C83.8149 32.632 84.3829 32.48 84.9429 32.48C85.5669 32.48 86.0949 32.6 86.5269 32.84C86.9589 33.064 87.3109 33.392 87.5829 33.824C87.8549 34.24 88.0549 34.744 88.1829 35.336C88.3109 35.928 88.3749 36.584 88.3749 37.304C88.3749 38.12 88.2789 38.848 88.0869 39.488C87.9109 40.128 87.6549 40.672 87.3189 41.12C86.9829 41.552 86.5829 41.888 86.1189 42.128C85.6709 42.368 85.1749 42.488 84.6309 42.488ZM97.3689 40.52V42.728L107.041 36.2V34.592L97.3689 27.848V30.032L105.145 35.432L97.3689 40.52Z" fill="#2D5FC3"/>
</svg>
