<svg width="124" height="108" viewBox="0 0 124 108" fill="none" xmlns="http://www.w3.org/2000/svg">
<path d="M61 23H111" stroke="#2D5FC3" stroke-width="2.5" stroke-miterlimit="10" stroke-linecap="round" stroke-linejoin="round"/>
<path d="M53 51.5V30H112.231C117.623 30 122 34.0093 122 38.9486V97.0514C122 101.991 117.623 106 112.231 106H56.142C54.4132 106 53 104.718 53 103.122V99.2886" stroke="#2D5FC3" stroke-width="2.5" stroke-miterlimit="10" stroke-linecap="round" stroke-linejoin="round"/>
<path d="M100 16.0202V7.03519C100 3.77296 96.9713 1.38157 93.8187 2.14184L60.0349 13.6288C55.836 15.0526 53 19.0198 53 23.4708V29" stroke="#2D5FC3" stroke-width="2.5" stroke-miterlimit="10" stroke-linecap="round" stroke-linejoin="round"/>
<path d="M82 42H111" stroke="#2D5FC3" stroke-width="2.5" stroke-miterlimit="10" stroke-linecap="round" stroke-linejoin="round"/>
<path d="M96 50H111" stroke="#2D5FC3" stroke-width="2.5" stroke-miterlimit="10" stroke-linecap="round" stroke-linejoin="round"/>
<path d="M30.4634 51.8684C27.446 51.8684 24.8203 53.8647 23.9911 56.733L19.1081 74.2411L15.8143 85.783L14.5706 90.1428C13.7183 93.1488 15.9756 96.1318 19.1081 96.1318H69.0438C72.0611 96.1318 74.6869 94.1355 75.5161 91.2672L77.4739 84.4063L80.5142 73.7592L84.9596 57.8574C85.8118 54.8514 83.5546 51.8684 80.4221 51.8684H30.4634V51.8684Z" stroke="#2D5FC3" stroke-width="2.5" stroke-miterlimit="10" stroke-linecap="round" stroke-linejoin="round"/>
<path d="M33.4805 96.1318H1.87915" stroke="#2D5FC3" stroke-width="2.5" stroke-miterlimit="10" stroke-linecap="round" stroke-linejoin="round"/>
<path d="M55.8229 74.746C55.8229 77.7979 53.3353 80.2761 50.2719 80.2761C47.2085 80.2761 44.7209 77.7979 44.7209 74.746C44.7209 71.6941 47.2085 69.2159 50.2719 69.2159C53.3353 69.2159 55.8229 71.6941 55.8229 74.746Z" stroke="#2D5FC3" stroke-width="2.5" stroke-miterlimit="10" stroke-linecap="round" stroke-linejoin="round"/>
</svg>
