<svg width="122" height="146" viewBox="0 0 122 146" fill="none" xmlns="http://www.w3.org/2000/svg">
<path d="M94.3 31.7437C91.675 14.6437 76.9375 1.55615 59.125 1.55615C39.4375 1.55615 23.5 17.4937 23.5 37.1812C23.5 39.1312 23.6875 41.0062 23.9875 42.8437C11.275 43.3687 1 53.9062 1 66.7311V67.5937C1 80.7937 11.7625 91.5562 24.925 91.5562H64.75H82.075H91C107.5 91.5562 121 78.0562 121 61.5562C121 46.1812 109.262 33.3937 94.3 31.7437Z" fill="#AFDAE9" stroke="#2F3B84" stroke-width="2" stroke-miterlimit="10" stroke-linejoin="round"/>
<path d="M76 137.912L69 144.296L62 137.912" stroke="#2F3B84" stroke-width="2" stroke-miterlimit="10" stroke-linejoin="round"/>
<path d="M69 128V144.8" stroke="#2F3B84" stroke-width="2" stroke-miterlimit="10" stroke-linejoin="round"/>
<path d="M103.333 89.1668V127.667H38V62.3335H75.3333L103.333 89.1668Z" fill="#F5F0F6" stroke="#2F3B84" stroke-width="2" stroke-miterlimit="10" stroke-linejoin="round"/>
<path d="M103.333 89.1668H75.3333V62.3335L103.333 89.1668Z" fill="#AFDAE9" stroke="#2F3B84" stroke-width="2" stroke-miterlimit="10" stroke-linejoin="round"/>
<path d="M51 89H92" stroke="#2F3B84" stroke-width="2" stroke-miterlimit="10" stroke-linejoin="round"/>
<path d="M51 98H92" stroke="#2F3B84" stroke-width="2" stroke-miterlimit="10" stroke-linejoin="round"/>
<path d="M51 107H92" stroke="#2F3B84" stroke-width="2" stroke-miterlimit="10" stroke-linejoin="round"/>
<path d="M51 116H92" stroke="#2F3B84" stroke-width="2" stroke-miterlimit="10" stroke-linejoin="round"/>
</svg>
