<svg width="66" height="82" viewBox="0 0 66 82" fill="none" xmlns="http://www.w3.org/2000/svg">
<path d="M23.5226 81.9562C28.0026 81.9562 32.2026 81.1162 36.1226 79.4362C40.1359 77.7562 43.8226 75.4695 47.1826 72.5762H47.6026L49.1426 80.5562H65.9426V34.7761C65.9426 11.7228 55.9092 0.196152 35.8426 0.196152C29.6826 0.196152 23.7559 1.08282 18.0626 2.85615C12.4626 4.62948 7.51591 6.82282 3.22258 9.43615L9.38258 24.1361C12.9292 21.8028 16.6626 19.9828 20.5826 18.6761C24.5959 17.3695 28.4226 16.7161 32.0626 16.7161C38.0359 16.7161 41.8626 17.9295 43.5426 20.3562C45.1292 23.7161 45.7359 27.0295 45.3626 30.2961C29.1226 30.7628 17.4092 33.3295 10.2226 37.9961C3.12925 42.5695 -0.184088 49.6628 0.282579 59.2762C0.282579 62.6362 0.842578 65.7162 1.96258 68.5162C3.08258 71.3162 4.62258 73.7428 6.58258 75.7962C8.63591 77.7562 11.1092 79.2962 14.0026 80.4162C16.8959 81.4428 20.0692 81.9562 23.5226 81.9562ZM29.8226 66.2762C26.8359 66.2762 24.3159 65.3428 22.2626 63.4762C20.3026 61.6095 19.2759 59.0428 19.1826 55.7762C19.0892 52.9762 19.9292 50.5495 21.7026 48.4961C23.5692 46.4428 26.7426 45.0895 31.2226 44.4362C33.4626 44.0628 35.7492 43.7828 38.0826 43.5962C40.5092 43.3162 42.9359 43.0828 45.3626 42.8961V58.7162C42.9359 61.1428 40.4626 63.0095 37.9426 64.3162C35.5159 65.5295 32.8092 66.1828 29.8226 66.2762Z" fill="#222222"/>
</svg>
