<svg width="130" height="152" viewBox="0 0 130 152" fill="none" xmlns="http://www.w3.org/2000/svg">
<path d="M45.8593 30.7313L62.3859 47.258C65.1196 49.9916 69.5518 49.9916 72.2854 47.258L88.1676 31.3758C90.9013 28.6421 90.9013 24.21 88.1676 21.4763L71.6409 4.94963C68.9072 2.21596 64.4751 2.21597 61.7414 4.94964L45.8593 20.8318C43.1256 23.5654 43.1256 27.9976 45.8593 30.7313Z" fill="#222222" stroke="#222222" stroke-width="2" stroke-miterlimit="10" stroke-linejoin="round"/>
<path d="M96.2993 120.142L129 120.142L129 88.3755L96.2993 88.3755L96.2993 120.142Z" fill="#AFDAE9" stroke="#222222" stroke-width="2" stroke-miterlimit="10" stroke-linejoin="round"/>
<path d="M17.3503 94.9154C8.32026 94.9154 0.999956 102.027 0.999956 110.799C0.999955 119.571 8.32026 126.682 17.3503 126.682C26.3804 126.682 33.7007 119.571 33.7007 110.799C33.7007 102.027 26.3804 94.9154 17.3503 94.9154Z" fill="#AFDAE9" stroke="#222222" stroke-width="2" stroke-miterlimit="10" stroke-linejoin="round"/>
<path d="M66.8684 119.208C57.8383 119.208 50.518 126.319 50.518 135.091C50.518 143.863 57.8383 150.974 66.8684 150.974C75.8984 150.974 83.2188 143.863 83.2188 135.091C83.2188 126.319 75.8984 119.208 66.8684 119.208Z" fill="#AFDAE9" stroke="#222222" stroke-width="2" stroke-miterlimit="10" stroke-linejoin="round"/>
<path d="M67.3357 120.142L67.3357 39.7916" stroke="#222222" stroke-width="2" stroke-miterlimit="10" stroke-linejoin="round"/>
<path d="M113.117 88.3754L113.117 70.0693L67.3357 56.6089" stroke="#222222" stroke-width="2" stroke-miterlimit="10" stroke-linejoin="round"/>
<path d="M67.3357 65.9523L16.8831 79.587L16.8831 94.9158" stroke="#222222" stroke-width="2" stroke-miterlimit="10" stroke-linejoin="round"/>
</svg>
