<svg width="151" height="171" viewBox="0 0 151 171" fill="none" xmlns="http://www.w3.org/2000/svg">
<path d="M116.47 54.0857H3.5293V138.792H116.47V54.0857Z" fill="#AFDAE9" stroke="#2F3B84" stroke-width="2" stroke-miterlimit="10" stroke-linejoin="round"/>
<path d="M23.5413 167.027H96.4589" stroke="#2F3B84" stroke-width="2" stroke-miterlimit="10" stroke-linejoin="round"/>
<path d="M27.8053 94.4442V96.8562L42.3133 106.648V103.336L30.6493 95.7042L42.3133 87.6042V84.3282L27.8053 94.4442ZM64.0056 78.2082H61.6296L50.8296 113.2H53.2416L64.0056 78.2082ZM72.69 103.336V106.648L87.198 96.8562V94.4442L72.69 84.3282V87.6042L84.354 95.7042L72.69 103.336Z" fill="#2F3B84"/>
<path d="M48.2471 138.792L39.9883 167.027" stroke="#2F3B84" stroke-width="2" stroke-miterlimit="10" stroke-linejoin="round"/>
<path d="M71.7529 138.792L80.0117 167.027" stroke="#2F3B84" stroke-width="2" stroke-miterlimit="10" stroke-linejoin="round"/>
<path d="M78 26.3209H95.1765" stroke="#2F3B84" stroke-width="2" stroke-miterlimit="10" stroke-linejoin="round"/>
<path d="M86.5881 34.9091V17.7326" stroke="#2F3B84" stroke-width="2" stroke-miterlimit="10" stroke-linejoin="round"/>
<path d="M101.618 6.99733H114.5" stroke="#2F3B84" stroke-width="2" stroke-miterlimit="10" stroke-linejoin="round"/>
<path d="M108.059 13.4385V0.556152" stroke="#2F3B84" stroke-width="2" stroke-miterlimit="10" stroke-linejoin="round"/>
<path d="M133.823 56.3797H151" stroke="#2F3B84" stroke-width="2" stroke-miterlimit="10" stroke-linejoin="round"/>
<path d="M142.412 64.9679V47.7914" stroke="#2F3B84" stroke-width="2" stroke-miterlimit="10" stroke-linejoin="round"/>
</svg>
