<svg width="124" height="132" viewBox="0 0 124 132" fill="none" xmlns="http://www.w3.org/2000/svg">
<path d="M61.0037 105.532C85.5993 105.532 105.538 85.5937 105.538 60.9981C105.538 36.4025 85.5993 16.4639 61.0037 16.4639C36.4081 16.4639 16.4695 36.4025 16.4695 60.9981C16.4695 85.5937 36.4081 105.532 61.0037 105.532Z" fill="white" stroke="#222222" stroke-width="2" stroke-miterlimit="10" stroke-linejoin="round"/>
<path d="M62.6448 120.355C95.4258 119.447 121.264 92.1362 120.355 59.3552C119.447 26.5742 92.1362 0.736418 59.3552 1.64481C26.5742 2.55321 0.736401 29.8638 1.6448 62.6448C2.55319 95.4258 29.8638 121.264 62.6448 120.355Z" stroke="#222222" stroke-width="2" stroke-miterlimit="10" stroke-linejoin="round"/>
<path d="M51.1133 49.36H45.6773L50.8253 76H57.3413L60.2573 62.824C60.4733 61.744 60.6653 60.7 60.8333 59.692C61.0253 58.684 61.2173 57.676 61.4093 56.668H61.5533C61.7213 57.676 61.9013 58.684 62.0933 59.692C62.2853 60.7 62.4893 61.744 62.7053 62.824L65.6933 76H72.3173L77.2493 49.36H72.1733L70.0853 62.356C69.8933 63.748 69.6893 65.152 69.4733 66.568C69.2813 67.984 69.0893 69.412 68.8973 70.852H68.7173C68.4293 69.412 68.1413 67.984 67.8533 66.568C67.5893 65.128 67.3133 63.724 67.0253 62.356L63.9293 49.36H59.3933L56.2973 62.356C56.0093 63.748 55.7213 65.152 55.4333 66.568C55.1453 67.984 54.8693 69.412 54.6053 70.852H54.4613C54.2693 69.412 54.0653 67.996 53.8493 66.604C53.6333 65.212 53.4293 63.796 53.2373 62.356L51.1133 49.36Z" fill="#222222"/>
<rect x="39" y="59" width="44" height="3" fill="#222222"/>
<circle cx="105" cy="113" r="19" fill="#222222"/>
<path d="M103.4 114.489L97.961 110.103L95 112.5L105.5 121L116 112.5L113.039 110.103L107.6 114.489V87H103.4V114.489Z" fill="#DFF5FE"/>
</svg>
