<svg width="120" height="121" viewBox="0 0 120 121" fill="none" xmlns="http://www.w3.org/2000/svg">
<path d="M105.882 28.7914V92.3209" stroke="#2F3B84" stroke-width="2" stroke-miterlimit="10" stroke-linejoin="round"/>
<path d="M28.2354 14.6738H95.2942" stroke="#2F3B84" stroke-width="2" stroke-miterlimit="10" stroke-linejoin="round"/>
<path d="M14.1177 92.3209V28.7914" stroke="#2F3B84" stroke-width="2" stroke-miterlimit="10" stroke-linejoin="round"/>
<path d="M91.7648 106.439H28.2354" stroke="#2F3B84" stroke-width="2" stroke-miterlimit="10" stroke-linejoin="round"/>
<path d="M24.7058 4.08556H3.5293V25.262H24.7058V4.08556Z" fill="#AFDAE9" stroke="#2F3B84" stroke-width="2" stroke-miterlimit="10" stroke-linejoin="round"/>
<path d="M24.7058 95.8503H3.5293V117.027H24.7058V95.8503Z" fill="#AFDAE9" stroke="#2F3B84" stroke-width="2" stroke-miterlimit="10" stroke-linejoin="round"/>
<path d="M116.471 4.08556H95.2942V25.262H116.471V4.08556Z" fill="#FFF100" stroke="#2F3B84" stroke-width="2" stroke-miterlimit="10" stroke-linejoin="round"/>
<path d="M116.471 95.8503H95.2942V117.027H116.471V95.8503Z" fill="#AFDAE9" stroke="#2F3B84" stroke-width="2" stroke-miterlimit="10" stroke-linejoin="round"/>
<path d="M51.3126 64.936H60.9606L63.4806 73H67.0086L58.0446 46.612H54.3366L45.3726 73H48.7566L51.3126 64.936ZM58.8726 58.24L60.1326 62.272H52.1406L53.4366 58.24C53.9166 56.728 54.3726 55.264 54.8046 53.848C55.2366 52.408 55.6566 50.896 56.0646 49.312H56.2086C56.6406 50.848 57.0726 52.348 57.5046 53.812C57.9366 55.252 58.3926 56.728 58.8726 58.24ZM68.7878 49.42H72.0638V46.036H68.7878V49.42ZM68.7518 53.452V73H72.0278V53.452H68.7518Z" fill="#2F3B84"/>
</svg>
